<?xml version="1.0" standalone="no"?>
<!DOCTYPE svg PUBLIC "-//W3C//DTD SVG 20010904//EN"
 "http://www.w3.org/TR/2001/REC-SVG-20010904/DTD/svg10.dtd">
<svg version="1.0" xmlns="http://www.w3.org/2000/svg"
 width="1280.000000pt" height="640.000000pt" viewBox="0 0 1280.000000 640.000000"
 preserveAspectRatio="xMidYMid meet">
<metadata>
Created by potrace 1.15, written by Peter Selinger 2001-2017
</metadata>
<g transform="translate(0.000000,640.000000) scale(0.100000,-0.100000)"
fill="#000000" stroke="none">
<path d="M10930 5519 c-325 -32 -614 -168 -857 -403 -190 -182 -249 -277 -385
-621 -93 -233 -141 -334 -203 -420 -171 -240 -357 -282 -1111 -251 -459 19
-1202 21 -2485 5 -510 -6 -1020 -8 -1134 -4 l-206 7 -62 55 c-78 68 -123 92
-200 104 -120 20 -248 -19 -413 -126 l-99 -64 -30 20 c-65 44 -99 54 -173 53
-40 -1 -75 -4 -78 -6 -2 -3 -8 -25 -12 -49 l-8 -44 -329 -6 c-182 -4 -895 -10
-1585 -14 -690 -4 -1277 -10 -1304 -13 l-50 -7 -24 -60 c-13 -33 -46 -109 -74
-170 -28 -60 -63 -141 -79 -178 l-28 -68 53 -107 c29 -59 73 -153 97 -210 39
-91 47 -102 65 -98 73 19 196 26 408 25 132 0 253 2 268 6 l28 7 0 -743 c0
-409 3 -863 7 -1008 l6 -263 191 6 c105 3 579 9 1052 12 l862 7 7 131 c5 72 7
521 6 997 l-2 866 93 6 c51 4 153 10 226 13 l133 7 -3 -66 c-3 -94 5 -100 95
-76 86 24 193 72 224 101 l23 21 83 -80 c110 -106 175 -138 277 -138 90 0 158
21 253 77 95 57 156 70 297 62 63 -3 324 1 580 10 707 25 1030 34 1945 56 462
11 962 25 1110 31 537 21 683 22 784 5 124 -20 207 -61 287 -140 74 -74 124
-159 199 -336 124 -292 226 -489 311 -600 271 -354 806 -574 1290 -530 219 20
415 80 582 179 328 196 515 401 687 756 244 503 328 1063 239 1590 -76 452
-255 810 -615 1230 -63 74 -96 102 -180 154 -293 183 -536 275 -788 301 -114
11 -129 11 -251 -1z m290 -724 c136 -36 251 -119 295 -211 68 -143 73 -395 12
-534 -5 -11 10 -24 60 -50 115 -59 239 -147 300 -214 103 -112 143 -218 143
-376 0 -216 -93 -394 -267 -514 -69 -47 -199 -106 -234 -106 -25 0 -24 -11 5
-69 55 -108 71 -269 41 -400 -47 -198 -199 -353 -383 -392 -32 -6 -95 -9 -144
-7 -116 7 -213 51 -297 135 -151 153 -199 368 -126 576 14 43 24 84 21 92 -9
24 -53 47 -136 70 -148 42 -260 133 -333 272 -47 90 -68 182 -68 297 0 308
182 548 464 610 25 6 27 10 27 56 0 27 -11 84 -24 127 -34 111 -37 136 -26
214 29 203 182 364 400 423 71 19 200 20 270 1z"/>
<path d="M7017 3874 c-14 -14 -6 -19 33 -19 22 0 41 5 42 10 3 12 -64 19 -75
9z"/>
</g>
</svg>
